<svg width="32" height="32" viewBox="0 0 32 32" fill="none" xmlns="http://www.w3.org/2000/svg">
  <path d="M16 4C20.4183 4 24 7.58172 24 12C24 16.4183 20.4183 20 16 20C11.5817 20 8 16.4183 8 12C8 7.58172 11.5817 4 16 4Z" stroke="#667eea" stroke-width="2.5" stroke-linecap="round" stroke-linejoin="round"/>
  <path d="M16 16C17.1046 16 18 15.1046 18 14C18 12.8954 17.1046 12 16 12C14.8954 12 14 12.8954 14 14C14 15.1046 14.8954 16 16 16Z" stroke="#667eea" stroke-width="2.5" stroke-linecap="round" stroke-linejoin="round"/>
  <path d="M6.34315 21.6569L10.5858 17.4142" stroke="#667eea" stroke-width="2.5" stroke-linecap="round" stroke-linejoin="round"/>
  <path d="M25.6569 21.6569L21.4142 17.4142" stroke="#667eea" stroke-width="2.5" stroke-linecap="round" stroke-linejoin="round"/>
  <path d="M16 28V24" stroke="#667eea" stroke-width="2.5" stroke-linecap="round" stroke-linejoin="round"/>
  <rect x="12" y="22" width="8" height="6" rx="1" stroke="#667eea" stroke-width="2.5"/>
</svg>
