<svg width="32" height="32" viewBox="0 0 32 32" fill="none" xmlns="http://www.w3.org/2000/svg">
  <path d="M6 2L26 2C27.1046 2 28 2.89543 28 4V28C28 29.1046 27.1046 30 26 30H6C4.89543 30 4 29.1046 4 28V4C4 2.89543 4.89543 2 6 2Z" stroke="#7A7E83" stroke-width="2" stroke-linecap="round" stroke-linejoin="round"/>
  <path d="M20 12C21.1046 12 22 11.1046 22 10C22 8.89543 21.1046 8 20 8C18.8954 8 18 8.89543 18 10C18 11.1046 18.8954 12 20 12Z" stroke="#7A7E83" stroke-width="2" stroke-linecap="round" stroke-linejoin="round"/>
  <path d="M4 22L10 16L14 20L20 14L28 22" stroke="#7A7E83" stroke-width="2" stroke-linecap="round" stroke-linejoin="round"/>
  <rect x="8" y="6" width="4" height="2" fill="#7A7E83"/>
  <rect x="8" y="10" width="6" height="1" fill="#7A7E83"/>
</svg>
